<svg id="Layer_1" xmlns="http://www.w3.org/2000/svg" viewBox="0 0 114.5 144"><style>.st0{fill:#010101}.st1{fill:#024569}.st2{fill:#055b94}.st3{fill:#fff}</style><g id="Page-1_1_"><g id="Desktop-HD" transform="translate(-588 -197)"><g id="Page-1" transform="translate(588 197)"><g id="Group-3" transform="translate(0 60.475)"><path id="Fill-1" class="st0" d="M22.4 32.9V15.2c0-.8-.7-1.4-1.5-1.4-1.4.1-2.9.2-4.3.4-.7.1-1.3.6-1.3 1.4v18.8c0 .6-.5 1.2-1.1 1.3-1.6.3-3.2.6-4.9.9-.8.2-1.6-.5-1.6-1.3V-9.4c0-.8.6-1.4 1.4-1.4H14c.8 0 1.4.6 1.4 1.4V6c0 .8.6 1.4 1.4 1.4 1.4-.1 2.9-.2 4.3-.3.7 0 1.3-.6 1.3-1.4V-9.4c0-.8.6-1.4 1.4-1.4h4.9c.8 0 1.4.6 1.4 1.4 0 13.9-.1 27.9-.1 41.7 0 .7-.5 1.3-1.2 1.3-1.6.2-3.3.4-4.9.6-.8.1-1.5-.5-1.5-1.3"/></g><path id="Fill-4" class="st0" d="M43.2 69.9c-.4 2.5-.8 5.1-1.1 7.6-.1.8.5 1.6 1.4 1.6.7 0 1.4 0 2.2-.1.8 0 1.4-.8 1.3-1.6-.3-2.5-.7-5-1-7.5-.3-1.5-2.6-1.5-2.8 0m5.6 21.4l-.6-4.5c-.1-.7-.7-1.2-1.4-1.2-1.6.1-3.2.1-4.8.2-.6 0-1.2.5-1.3 1.1-.3 1.7-.5 3.3-.8 5-.1.6-.6 1.1-1.3 1.1-1.6.1-3.2.3-4.8.4-.9.1-1.6-.7-1.5-1.6C35 78 37.5 64.2 40 50.7c.1-.6.7-1.1 1.3-1.1h6.5c.6 0 1.2.5 1.3 1.1 2.4 13.4 4.8 26.7 7.3 40.1.2.8-.5 1.6-1.3 1.6-1.7 0-3.3 0-5 .1-.6 0-1.2-.5-1.3-1.2"/><path id="Fill-6" class="st0" d="M80.7 88.4c-2 5.9-9.7 5.2-10.6 5.2-1.8-.1-3.4-.5-4-.6-3.1-.7-5.8-2.1-7-5.2-.6-1.6-.6-2.9-.6-4.5V60c0-.7.1-1.5.1-2.2.1-2.7.8-4.8 2.9-6.6 1.7-1.4 4-2.5 8.6-2.5 2.7 0 5.5.4 7.8 2 1.1.8 2.1 1.9 2.6 3.2.6 1.4.7 2.3.7 5v5.3c0 .8-.6 1.4-1.4 1.4-1.6 0-3.3-.1-4.9-.2-.8 0-1.3-.6-1.3-1.4.1-5.9.8-9.2-3.9-9.2-3 0-3.5 1.9-3.5 4.6v23c0 2.8.6 4.9 3.8 5 3.4.2 3.7-1.8 3.7-5.1v-4.2c0-.8.6-1.4 1.4-1.4 1.6.1 3.2.2 4.8.2.7 0 1.3.6 1.3 1.4v4.9c.1 1.7 0 3.6-.5 5.2"/><path id="Fill-8" class="st0" d="M100.1 95.1c-1.8-5.1-3.5-10.1-5.2-15-.5-1.4-2.7-1.1-2.7.5v12.6c0 .8-.7 1.4-1.5 1.3-1.7-.2-3.3-.4-5-.6-.7-.1-1.2-.6-1.2-1.3L84.4 51c0-.8.6-1.4 1.4-1.4h5.1c.8 0 1.4.6 1.4 1.4v10.2c0 1.4 2 1.9 2.6.6 1.8-3.7 3.5-7.5 5.3-11.3.2-.5.7-.8 1.3-.8h4.9c1 0 1.6 1 1.2 1.9-2.8 6-5.6 11.8-8.3 17.4-.2.3-.2.7-.1 1.1 2.9 8.1 5.9 16.4 8.8 25.1.3 1-.5 2-1.6 1.8-1.7-.3-3.4-.6-5.2-1-.6 0-1-.4-1.1-.9"/><path id="Fill-10" class="st0" d="M23.9 42.2V28.1c0-.5.4-.9.9-.9h2.6c.5 0 .9.4.9.9v10.1c0 .5.4.9.9.9h3.6c.5 0 .9.4.9.9v2.2c0 .5-.4.9-.9.9h-8c-.5.1-.9-.3-.9-.9"/><path id="Fill-12" class="st0" d="M43.1 31.1c-.6-.4-1.3-.5-1.5-.5-.3 0-1.3.1-2.1 1-.5.6-1 1.7-1 3.6 0 .3 0 2.1.8 3.3.3.4.5.6.9.8.3.2.7.3 1.4.3.8 0 1.5-.3 2-1 .5-.6 1-1.7 1-3.6 0-.4 0-2.8-1.5-3.9m3.8 10.3c-2 2.2-4.5 2.3-5.4 2.3-.9 0-3.5 0-5.4-2.3-1.4-1.6-2-3.9-2-6.2 0-1.1.2-4.1 2.1-6.2.9-1 2.5-2.3 5.4-2.3.9 0 3.3 0 5.3 2.2.8.9 2.1 2.9 2.1 6.2 0 .9-.1 4-2.1 6.3"/><g id="Group-16" transform="translate(110.56 .225)"><path id="Fill-14" class="st0" d="M-47.7 40.7c-.8 1.1-2.6 2.7-5.7 2.7-1.8 0-3.3-.5-4.7-1.8-2.3-2.2-2.5-5.4-2.5-6.5 0-1 .1-3.2 1.4-5.3 1.9-3.1 4.6-3.3 5.8-3.3 3.2 0 5.1 1.9 5.8 2.9.2.3.3.5.5.7.3.4.1 1-.3 1.2l-2.1 1.2c-.4.2-1 .1-1.2-.3-.5-.8-1.3-1.9-2.5-1.9-.8 0-1.3.3-1.6.6-1.4 1.2-1.3 3.5-1.3 3.9 0 2.2.6 3.3 1.3 4 .7.6 1.3.6 1.6.6 1.1 0 1.9-1.1 2.4-1.9.2-.4.8-.5 1.2-.3l2.2 1.2c.4.2.6.8.3 1.2-.2.5-.4.8-.6 1.1"/></g><path id="Fill-17" class="st0" d="M71 35.1l-.3 1.2c-.2.6.3 1.1.9 1.1h.6c.6 0 1-.6.9-1.1l-.3-1.2c-.4-1-1.6-1-1.8 0m3.6 7.4l-.3-.9c-.1-.4-.5-.6-.9-.6H70c-.4 0-.8.3-.9.6l-.2.9c-.1.4-.5.6-.9.6h-2.8c-.6 0-1.1-.6-.8-1.2l4.7-14.1c.1-.4.5-.6.8-.6h3.7c.4 0 .7.3.8.6L79.1 42c.2.6-.2 1.2-.8 1.2h-2.8c-.4 0-.7-.3-.9-.7"/><path id="Fill-19" class="st0" d="M80.4 42.2V28.1c0-.5.4-.9.9-.9h2.6c.5 0 .9.4.9.9v10.1c0 .5.4.9.9.9h3.6c.5 0 .9.4.9.9v2.2c0 .5-.4.9-.9.9h-8c-.5.1-.9-.3-.9-.9"/><g id="Group-23" transform="translate(72.551 192.787)"><path id="Fill-21" class="st0" d="M-29.3-88.7c-.4-.3-.8-.5-1.6-.5h-.6c-.6 0-1 .5-1 1v6.5c0 .6.5 1 1 1h.6c.5 0 .8 0 1.3-.3 1.6-.9 1.6-3.8 1.6-4-.1-.1 0-2.8-1.3-3.7m5.4 6.2c-.2 1-.9 4.2-3.8 5.2-1.1.4-2.4.3-3.5.3h-4.7c-.6 0-1-.5-1-1.1v-13.8c0-.6.5-1 1-1h5.6c1.9.1 3.5.3 4.9 1.8.9 1 1.9 2.8 1.9 6-.1 1.3-.3 2.1-.4 2.6"/></g><path id="Fill-24" class="st0" d="M56 108.2l-.2.5c-.2.6.3 1.3 1 1.3h.3c.7 0 1.2-.6 1-1.3l-.1-.5c-.2-1-1.7-1-2 0m3.8 6.8l-.2-.7c-.1-.5-.5-.8-1-.8h-3.2c-.5 0-.9.3-1 .8l-.2.7c-.1.5-.5.8-1 .8h-2.5c-.7 0-1.2-.7-1-1.4l4.6-13.8c.2-.4.5-.7 1-.7h3.5c.5 0 .8.3 1 .7l4.5 13.8c.2.7-.3 1.4-1 1.4h-2.5c-.4 0-.8-.3-1-.8"/><path id="Fill-26" class="st0" d="M72.9 109.4v5.4c0 .6-.5 1.1-1 1.1h-2.3c-.6 0-1-.5-1-1.1v-5.4c0-.2 0-.4-.2-.5l-4.5-7.4c-.4-.7.1-1.6.9-1.6h2.6c.4 0 .8.2.9.6l1.5 2.9c.4.8 1.5.8 1.9 0l1.4-2.9c.2-.3.5-.6 1-.6h2.6c.8 0 1.3.9.9 1.6l-4.5 7.4c-.2.1-.2.3-.2.5"/></g></g></g><path class="st0" d="M48.6 7.4c.3.1.5.3.7.5.2.2.3.4.5.7.1.2.2.5.2.8v11.2c0 .1 0 .2-.1.3-.1.1-.2.1-.3.1h-2.7c-.1 0-.2 0-.3-.1-.1-.1-.1-.2-.1-.3V10.4h-2.1v10.2c0 .1 0 .2-.1.3-.1.1-.2.1-.3.1h-2.4c-.1 0-.2 0-.3-.1-.1-.1-.1-.2-.1-.3V10.4h-2.1v10.2c0 .2-.1.3-.4.3H36c-.2 0-.4-.1-.4-.3v-13c0-.2.1-.3.4-.3h11.6c.4-.1.7 0 1 .1zm13 10.2c.1 0 .2 0 .3.1s.1.2.1.3v2.6c0 .1 0 .2-.1.3-.1.1-.2.1-.3.1h-9.1c-.3 0-.4-.1-.4-.4v-13c0-.3.1-.4.4-.4h2.8c.3 0 .4.1.4.4v9.7c0 .1 0 .2.1.3s.2.1.3.1l5.5-.1zm14-10.4c.1 0 .2 0 .3.1 0 .1.1.2.1.3v13c0 .1 0 .2-.1.3-.1.1-.2.1-.3.1h-2.8c-.1 0-.2 0-.3-.1-.1-.1-.1-.2-.1-.3V16c0-.1 0-.2-.1-.3-.1-.1-.2-.1-.3-.1h-4c-.1 0-.2 0-.3.1-.1.1-.1.2-.1.3v4.5c0 .3-.1.4-.4.4h-2.8c-.3 0-.4-.1-.4-.4v-13c0-.3.1-.4.4-.4h2.8c.3 0 .4.1.4.4V12c0 .3.1.4.4.4h4c.1 0 .2 0 .3-.1.1-.1.1-.2.1-.3V7.6c0-.1 0-.2.1-.3.1-.1.2-.1.3-.1h2.8z"/><path class="st1" d="M6.7 116.2c3.1-1.5 12.2-5.6 22.2-7.3.5-.1.9.3.9.8v14c0 .4-.3.7-.7.8-8.2 1.3-16.8 4.9-20.6 6.7-.7.3-1.4-.4-1-1.1l3.9-7.6c.2-.3.1-.7-.2-1l-4.6-3.9c-.5-.5-.4-1.2.1-1.4zm99.6 0c-3.1-1.5-12.2-5.6-22.2-7.3-.5-.1-.9.3-.9.8v14c0 .4.3.7.7.8 8.2 1.3 16.8 4.9 20.6 6.7.7.3 1.4-.4 1-1.1l-3.9-7.6c-.2-.3-.1-.7.2-1l4.6-3.9c.5-.5.4-1.2-.1-1.4z"/><path class="st2" d="M92 136.9H21c-.6 0-1-.5-1-1v-14.5c0-.6.5-1 1-1h71c.6 0 1 .5 1 1v14.5c0 .6-.4 1-1 1z"/><path class="st3" d="M61 128.5h-2.8c-.1 0-.1.1-.1.1v1.4c0 .1.1.1.1.1h1.1v1.7s-.2.1-.9.1c-.8 0-1.9-.3-1.9-2.7 0-2.4 1.2-2.8 2.2-2.8.9 0 1.3.2 1.6.2.1 0 .2-.1.2-.1l.3-1.3v-.1c-.1-.1-.7-.4-2.3-.4-1.9 0-3.8.8-3.8 4.6s2.2 4.4 4 4.4c1.5 0 2.4-.6 2.4-.6v-4.3c0-.3 0-.3-.1-.3zm14.3-3.4c0-.1-.1-.1-.1-.1h-1.6c-.1 0-.1.1-.1.1v3h-2.4v-3c0-.1-.1-.1-.1-.1h-1.6c-.1 0-.1.1-.1.1v8.2c0 .1.1.1.1.1H71c.1 0 .1-.1.1-.1v-3.5h2.4v3.5c0 .1.1.1.1.1h1.6c.1 0 .1-.1.1-.1v-8.2zM64 126.2c0-.6-.5-1-1-1-.6 0-1 .5-1 1 0 .6.5 1 1 1s1-.5 1-1zm-.2 5.4v-3.8c0-.1-.1-.1-.1-.1h-1.6c-.1 0-.1.1-.1.1v5.4c0 .2.1.2.2.2h1.4c.2 0 .2-.1.2-.2v-1.6zm17.5-3.9h-1.6c-.1 0-.1.1-.1.1v4s-.4.3-1 .3-.7-.3-.7-.8v-3.5c0-.1-.1-.1-.1-.1h-1.6c-.1 0-.1.1-.1.1v3.8c0 1.6.9 2 2.2 2 1 0 1.8-.6 1.8-.6s0 .3.1.3l.1.1h1c.1 0 .1-.1.1-.1v-5.5c0-.1-.1-.1-.1-.1zm4.2-.2c-.9 0-1.5.4-1.5.4v-2.8c0-.1-.1-.1-.1-.1h-1.6c-.1 0-.1.1-.1.1v8.2c0 .1.1.1.1.1h1.1s.1 0 .1-.1l.1-.4s.6.6 1.9.6c1.4 0 2.2-.7 2.2-3.2s-1.3-2.8-2.2-2.8zm-.6 4.6c-.5 0-.9-.3-.9-.3v-2.6s.4-.2.8-.3c.6-.1 1.1.1 1.1 1.5s-.3 1.7-1 1.7zm-16.6-4.5h-1.2v-1.5c0-.1 0-.1-.1-.1h-1.6c-.1 0-.1 0-.1.1v1.6s-.8.2-.9.2c-.1 0-.1.1-.1.1v1c0 .1.1.1.1.1h.8v2.4c0 1.8 1.3 2 2.1 2 .4 0 .9-.1.9-.2l.1-.1v-1.1c0-.1-.1-.1-.1-.1h-.4c-.6 0-.8-.3-.8-.6v-2.3h1.2c.1 0 .1-.1.1-.1v-1.3c.2 0 .1-.1 0-.1zm-40 3.8h-.5v-1.8h-2.1v1.8h-.5v-3.9h.5v1.7h2.1v-1.7h.5v3.9zm3.7-1.5c0 .5-.1.9-.4 1.1-.2.3-.6.4-1 .4-.3 0-.5-.1-.7-.2-.2-.1-.4-.3-.5-.5-.1-.2-.2-.5-.2-.8 0-.5.1-.9.4-1.1.2-.3.6-.4 1-.4s.7.1 1 .4c.3.3.4.6.4 1.1zm-2.2 0c0 .4.1.7.2.9.2.2.4.3.7.3.3 0 .5-.1.7-.3.2-.2.2-.5.2-.9s-.1-.7-.2-.9c-.2-.2-.4-.3-.7-.3-.3 0-.5.1-.7.3-.1.2-.2.5-.2.9zm5.1.7c0 .3-.1.5-.3.6-.2.1-.5.2-.9.2s-.7-.1-.9-.2v-.4c.1.1.3.1.5.2.2 0 .3.1.5.1s.4 0 .5-.1c.1-.1.2-.2.2-.3 0-.1 0-.2-.1-.3s-.3-.2-.6-.3c-.3-.1-.5-.2-.6-.3l-.3-.3c-.1-.1-.1-.2-.1-.3 0-.2.1-.4.3-.6.2-.1.5-.2.8-.2.3 0 .6.1.9.2l-.2.4c-.3-.1-.6-.2-.8-.2-.2 0-.4 0-.5.1-.1.1-.2.2-.2.3 0 .1 0 .1.1.2l.2.2c.1.1.3.1.5.2.3.1.6.3.7.4.2 0 .3.2.3.4zm1.9.5h.4v.3s-.1 0-.2.1h-.3c-.6 0-.9-.3-.9-.9v-1.7h-.4v-.2l.4-.2.2-.6h.3v.7h.9v.3h-.9v1.7c0 .2 0 .3.1.4.1 0 .2.1.4.1zm2.4.3c-.4 0-.8-.1-1-.4-.3-.3-.4-.6-.4-1.1 0-.5.1-.8.4-1.1.2-.3.5-.4.9-.4s.7.1.9.4c.2.2.3.6.3 1v.3h-2c0 .3.1.6.3.8.2.2.4.3.7.3.3 0 .6-.1.9-.2v.4c-.2.1-.3.1-.4.1s-.4-.1-.6-.1zm-.1-2.6c-.2 0-.4.1-.6.2-.1.2-.2.4-.2.6h1.5c0-.3-.1-.5-.2-.6-.1-.2-.3-.2-.5-.2zm4.1 2.2c-.2.3-.5.4-.9.4s-.7-.1-.9-.4c-.2-.3-.3-.6-.3-1.1s.1-.9.3-1.1c.2-.3.5-.4.9-.4s.7.1.9.4v-1.6h.4v4.2h-.4v-.4zm-.9.1c.3 0 .5-.1.7-.2.1-.2.2-.4.2-.8v-.1c0-.4-.1-.7-.2-.9-.1-.2-.4-.3-.7-.3-.3 0-.5.1-.6.3-.1.2-.2.5-.2.9s.1.7.2.8c.1.2.4.3.6.3zm4.1-3.6h1.1c.5 0 .9.1 1.1.2.2.2.3.4.3.7 0 .2-.1.4-.2.6-.1.2-.3.2-.6.3.6.1.9.4.9.9 0 .4-.1.6-.4.8-.2.2-.6.3-1 .3h-1.4v-3.8zm.5 1.6h.8c.3 0 .6-.1.7-.2.1-.1.2-.3.2-.5s-.1-.4-.2-.5c-.2-.1-.4-.1-.8-.1h-.7v1.3zm0 .4v1.5h.8c.3 0 .6-.1.7-.2.2-.1.2-.3.2-.6 0-.2-.1-.4-.2-.5-.2-.1-.4-.2-.7-.2h-.8zm2.8-1.1h.5l.6 1.7c.1.4.2.7.3.8 0-.1.1-.2.1-.5.1-.2.3-.9.7-2h.5l-1.3 3.3c-.1.3-.3.6-.4.7-.2.1-.4.2-.6.2h-.4v-.4h.3c.3 0 .5-.2.7-.5l.2-.4-1.2-2.9z"/></svg>